<?xml version="1.0" standalone="no"?>
<!DOCTYPE svg PUBLIC "-//W3C//DTD SVG 20010904//EN"
 "http://www.w3.org/TR/2001/REC-SVG-20010904/DTD/svg10.dtd">
<svg version="1.0" xmlns="http://www.w3.org/2000/svg"
 width="512.000000pt" height="512.000000pt" viewBox="0 0 512.000000 512.000000"
 preserveAspectRatio="xMidYMid meet">
<metadata>
Created by potrace 1.11, written by Peter Selinger 2001-2013
</metadata>
<g transform="translate(0.000000,512.000000) scale(0.100000,-0.100000)"
fill="#000000" stroke="none">
<path d="M2430 4989 c-502 -26 -999 -216 -1395 -534 -490 -393 -812 -974 -891
-1604 -18 -149 -18 -433 0 -582 56 -449 240 -885 521 -1234 393 -490 974 -812
1604 -891 149 -18 433 -18 582 0 819 103 1531 607 1890 1341 170 349 249 690
249 1080 0 376 -80 725 -244 1060 -327 668 -933 1148 -1656 1309 -219 49 -431
66 -660 55z m130 -819 l0 -560 -42 0 c-23 0 -86 -7 -140 -16 -54 -9 -100 -15
-102 -13 -5 6 -414 1002 -418 1018 -9 40 398 128 605 130 l97 1 0 -560z m315
540 c145 -23 310 -65 429 -109 43 -16 80 -32 83 -34 4 -4 -310 -768 -406 -990
l-20 -47 -63 24 c-35 13 -96 29 -136 36 l-72 13 0 564 0 563 28 0 c15 0 86 -9
157 -20z m-931 -665 l212 -510 -75 -40 c-42 -22 -97 -54 -122 -72 l-46 -32
-398 399 -398 398 79 63 c44 34 123 91 177 127 108 71 324 183 345 179 8 -1
108 -227 226 -512z m1670 414 c165 -94 279 -176 414 -300 l66 -60 -396 -396
-396 -396 -63 54 c-35 30 -85 68 -112 84 -26 17 -46 35 -45 41 10 39 425 1024
432 1024 4 0 49 -23 100 -51z m-2195 -763 l394 -394 -54 -63 c-30 -35 -68 -85
-84 -112 -20 -31 -35 -45 -45 -42 -99 35 -1020 422 -1020 429 0 17 122 222
185 310 59 84 214 266 225 266 3 0 182 -177 399 -394z m2838 217 c38 -49 95
-128 127 -178 60 -94 182 -332 174 -340 -5 -5 -1015 -425 -1022 -425 -3 0 -21
30 -40 68 -19 37 -50 90 -70 117 l-34 50 396 398 c218 218 398 397 399 397 1
0 33 -39 70 -87z m-3230 -717 c257 -107 489 -203 515 -214 l46 -20 -23 -64
c-12 -35 -28 -96 -35 -135 l-13 -73 -564 0 c-553 0 -563 0 -563 20 0 45 33
252 55 345 27 112 100 335 110 335 2 0 214 -87 472 -194z m1690 140 c148 -32
274 -99 387 -206 173 -165 254 -368 244 -615 -5 -106 -9 -131 -40 -212 -46
-123 -89 -192 -173 -281 -155 -165 -354 -252 -575 -252 -208 0 -391 74 -544
220 -237 226 -311 565 -188 867 16 40 45 96 63 125 46 73 152 182 224 231 71
49 197 104 280 122 81 18 239 18 322 1z m-1207 -818 c0 -23 7 -86 16 -140 9
-54 15 -100 13 -102 -6 -5 -1001 -414 -1018 -418 -41 -9 -131 414 -131 617 l0
85 560 0 560 0 0 -42z m111 -430 c18 -35 49 -88 70 -119 l37 -56 -397 -397
-398 -398 -70 89 c-39 48 -96 129 -127 178 -65 102 -182 332 -174 340 6 6
1010 424 1020 425 4 0 22 -28 39 -62z"/>
</g>
</svg>
